HIERARCHY
ROOT Hips
{
    OFFSET   0.000000   0.000000   0.000000
    CHANNELS 6 Xposition Yposition Zposition Zrotation Xrotation Yrotation
    JOINT Chest
    {
        OFFSET   0.000000   8.007230   0.000000
        CHANNELS 3 Zrotation Xrotation Yrotation
        JOINT Chest2
        {
            OFFSET   0.000000  22.077100   0.000000
            CHANNELS 3 Zrotation Xrotation Yrotation
            JOINT Neck
            {
                OFFSET   0.000000  23.254800  -0.000021
                CHANNELS 3 Zrotation Xrotation Yrotation
                JOINT Head
                {
                    OFFSET   0.000000  14.370000   1.956610
                    CHANNELS 3 Zrotation Xrotation Yrotation
                    End Site
                    {
                        OFFSET   0.000000  19.566000   0.000000
                    }
                }
            }
            JOINT LeftCollar
            {
                OFFSET   3.911900  19.017000  -0.467063
                CHANNELS 3 Zrotation Xrotation Yrotation
                JOINT LeftShoulder
                {
                    OFFSET  10.383700   0.000000   0.000000
                    CHANNELS 3 Zrotation Xrotation Yrotation
                    JOINT LeftElbow
                    {
                        OFFSET  26.662100   0.001529   0.000325
                        CHANNELS 3 Zrotation Xrotation Yrotation
                        JOINT LeftWrist
                        {
                            OFFSET  28.869000  -0.000011  -0.000096
                            CHANNELS 3 Zrotation Xrotation Yrotation
                            JOINT LeftFinger0
                            {
                                OFFSET   2.044650  -2.323460   3.252850
                                CHANNELS 3 Zrotation Xrotation Yrotation
                                JOINT LeftFinger01
                                {
                                    OFFSET   3.088130   0.000000   0.000000
                                    CHANNELS 3 Zrotation Xrotation Yrotation
                                    JOINT LeftFinger02
                                    {
                                        OFFSET   2.639460   0.000000   0.000000
                                        CHANNELS 3 Zrotation Xrotation Yrotation
                                        End Site
                                        {
                                            OFFSET   2.582190   0.000000   0.000000
                                        }
                                    }
                                }
                            }
                            JOINT LeftFinger1
                            {
                                OFFSET   8.364480   0.000000   3.252850
                                CHANNELS 3 Zrotation Xrotation Yrotation
                                JOINT LeftFinger11
                                {
                                    OFFSET   4.646930   0.000000   0.000000
                                    CHANNELS 3 Zrotation Xrotation Yrotation
                                    JOINT LeftFinger12
                                    {
                                        OFFSET   2.323460   0.000000   0.000000
                                        CHANNELS 3 Zrotation Xrotation Yrotation
                                        End Site
                                        {
                                            OFFSET   2.273050   0.000000   0.000000
                                        }
                                    }
                                }
                            }
                            JOINT LeftFinger2
                            {
                                OFFSET   8.364480   0.000016   1.078090
                                CHANNELS 3 Zrotation Xrotation Yrotation
                                JOINT LeftFinger21
                                {
                                    OFFSET   5.111620   0.000000   0.000000
                                    CHANNELS 3 Zrotation Xrotation Yrotation
                                    JOINT LeftFinger22
                                    {
                                        OFFSET   2.788160   0.000017   0.000000
                                        CHANNELS 3 Zrotation Xrotation Yrotation
                                        End Site
                                        {
                                            OFFSET   2.727660   0.000000   0.000000
                                        }
                                    }
                                }
                            }
                            JOINT LeftFinger3
                            {
                                OFFSET   7.899780   0.000015  -1.078090
                                CHANNELS 3 Zrotation Xrotation Yrotation
                                JOINT LeftFinger31
                                {
                                    OFFSET   4.646920   0.000000   0.000000
                                    CHANNELS 3 Zrotation Xrotation Yrotation
                                    JOINT LeftFinger32
                                    {
                                        OFFSET   2.323470   0.000000   0.000000
                                        CHANNELS 3 Zrotation Xrotation Yrotation
                                        End Site
                                        {
                                            OFFSET   2.273050   0.000000   0.000000
                                        }
                                    }
                                }
                            }
                            JOINT LeftFinger4
                            {
                                OFFSET   7.435090   0.000000  -3.252850
                                CHANNELS 3 Zrotation Xrotation Yrotation
                                JOINT LeftFinger41
                                {
                                    OFFSET   3.717550   0.000000   0.000000
                                    CHANNELS 3 Zrotation Xrotation Yrotation
                                    JOINT LeftFinger42
                                    {
                                        OFFSET   1.858760   0.000000   0.000000
                                        CHANNELS 3 Zrotation Xrotation Yrotation
                                        End Site
                                        {
                                            OFFSET   1.818440   0.000000   0.000000
                                        }
                                    }
                                }
                            }
                        }
                    }
                }
            }
            JOINT RightCollar
            {
                OFFSET  -3.911900  19.017000  -0.467062
                CHANNELS 3 Zrotation Xrotation Yrotation
                JOINT RightShoulder
                {
                    OFFSET -10.383700   0.000015   0.000000
                    CHANNELS 3 Zrotation Xrotation Yrotation
                    JOINT RightElbow
                    {
                        OFFSET -26.662100   0.001341   0.000385
                        CHANNELS 3 Zrotation Xrotation Yrotation
                        JOINT RightWrist
                        {
                            OFFSET -28.869000   0.000025  -0.000080
                            CHANNELS 3 Zrotation Xrotation Yrotation
                            JOINT RightFinger0
                            {
                                OFFSET  -2.044650  -2.323490   3.252850
                                CHANNELS 3 Zrotation Xrotation Yrotation
                                JOINT RightFinger01
                                {
                                    OFFSET  -3.088130   0.000000   0.000000
                                    CHANNELS 3 Zrotation Xrotation Yrotation
                                    JOINT RightFinger02
                                    {
                                        OFFSET  -2.639460   0.000000   0.000000
                                        CHANNELS 3 Zrotation Xrotation Yrotation
                                        End Site
                                        {
                                            OFFSET  -2.582190   0.000000   0.000000
                                        }
                                    }
                                }
                            }
                            JOINT RightFinger1
                            {
                                OFFSET  -8.364480   0.000000   3.252850
                                CHANNELS 3 Zrotation Xrotation Yrotation
                                JOINT RightFinger11
                                {
                                    OFFSET  -4.646930   0.000000   0.000000
                                    CHANNELS 3 Zrotation Xrotation Yrotation
                                    JOINT RightFinger12
                                    {
                                        OFFSET  -2.323470   0.000000   0.000000
                                        CHANNELS 3 Zrotation Xrotation Yrotation
                                        End Site
                                        {
                                            OFFSET  -2.273050   0.000000   0.000000
                                        }
                                    }
                                }
                            }
                            JOINT RightFinger2
                            {
                                OFFSET  -8.364480   0.000000   1.078090
                                CHANNELS 3 Zrotation Xrotation Yrotation
                                JOINT RightFinger21
                                {
                                    OFFSET  -5.111610   0.000000   0.000000
                                    CHANNELS 3 Zrotation Xrotation Yrotation
                                    JOINT RightFinger22
                                    {
                                        OFFSET  -2.788160   0.000000   0.000000
                                        CHANNELS 3 Zrotation Xrotation Yrotation
                                        End Site
                                        {
                                            OFFSET  -2.727660   0.000000   0.000000
                                        }
                                    }
                                }
                            }
                            JOINT RightFinger3
                            {
                                OFFSET  -7.899780   0.000000  -1.078090
                                CHANNELS 3 Zrotation Xrotation Yrotation
                                JOINT RightFinger31
                                {
                                    OFFSET  -4.646920   0.000000   0.000000
                                    CHANNELS 3 Zrotation Xrotation Yrotation
                                    JOINT RightFinger32
                                    {
                                        OFFSET  -2.323470   0.000000   0.000000
                                        CHANNELS 3 Zrotation Xrotation Yrotation
                                        End Site
                                        {
                                            OFFSET  -2.273050   0.000000   0.000000
                                        }
                                    }
                                }
                            }
                            JOINT RightFinger4
                            {
                                OFFSET  -7.435090   0.000000  -3.252850
                                CHANNELS 3 Zrotation Xrotation Yrotation
                                JOINT RightFinger41
                                {
                                    OFFSET  -3.717550   0.000000   0.000000
                                    CHANNELS 3 Zrotation Xrotation Yrotation
                                    JOINT RightFinger42
                                    {
                                        OFFSET  -1.858770   0.000000   0.000000
                                        CHANNELS 3 Zrotation Xrotation Yrotation
                                        End Site
                                        {
                                            OFFSET  -1.818440   0.000000   0.000000
                                        }
                                    }
                                }
                            }
                        }
                    }
                }
            }
        }
    }
    JOINT LeftHip
    {
        OFFSET   9.783010   0.000000   0.000000
        CHANNELS 3 Zrotation Xrotation Yrotation
        JOINT LeftKnee
        {
            OFFSET   0.000070 -41.789100   0.000028
            CHANNELS 3 Zrotation Xrotation Yrotation
            JOINT LeftAnkle
            {
                OFFSET   0.000087 -41.133200  -0.000100
                CHANNELS 3 Zrotation Xrotation Yrotation
                JOINT LeftToe
                {
                    OFFSET   0.000000  -6.358960  14.674500
                    CHANNELS 3 Zrotation Xrotation Yrotation
                    End Site
                    {
                        OFFSET   0.000000   0.000000   3.913200
                    }
                }
            }
        }
    }
    JOINT RightHip
    {
        OFFSET  -9.783020   0.000000   0.000000
        CHANNELS 3 Zrotation Xrotation Yrotation
        JOINT RightKnee
        {
            OFFSET   0.000044 -41.789100  -0.000870
            CHANNELS 3 Zrotation Xrotation Yrotation
            JOINT RightAnkle
            {
                OFFSET  -0.000090 -41.133200  -0.000245
                CHANNELS 3 Zrotation Xrotation Yrotation
                JOINT RightToe
                {
                    OFFSET   0.000000  -6.358960  14.674500
                    CHANNELS 3 Zrotation Xrotation Yrotation
                    End Site
                    {
                        OFFSET   0.000000   0.000000   3.913200
                    }
                }
            }
        }
    }
}
MOTION
Frames: 4
Frame Time:   0.016667
  0.302331  89.933000   1.852340  -0.612082  -6.680670  -1.492250  -0.337473   5.453700  -0.035604  -0.676153  10.907500  -0.039031   0.908051  -0.598996   0.002409   1.492260  -1.213790   8.000700  -5.034870  -1.647600   4.452570 -70.412000  12.135500  -2.980050  -2.558590  -8.396020 -18.434700   7.329230   2.969590   4.731430  48.868000  42.037400 -78.671600 -26.061000   0.004394   0.003971  -8.030500  -0.004165   0.000752 -30.099700   4.014980  -6.890640 -24.826100   0.002763   0.009490 -17.379700  -0.004195   0.001532 -28.121500  -1.151920   2.154010 -33.002700  -0.000577   0.006744 -21.972800  -0.001441   0.001516 -24.469900  -1.590390   3.490320 -24.518400   0.000000   0.000259 -16.329300  -0.000057   0.000153 -24.123900  -3.376520   7.490080 -36.521100   0.000839   0.006254 -24.322900   0.001218  -0.001481  10.734100   1.438410   7.643510  69.024400   1.374310   0.466477  -0.129470 -11.741400  17.758400  -9.067860  -9.811830  -5.071930 -37.342200  29.487400  61.704100  31.297000   0.004623  -0.014247  10.648500   0.003368  -0.005148  26.700700   1.595960   3.169490  21.882200   0.002274  -0.004990  15.317500   0.002513  -0.002432  27.109600  -0.990467  -1.934520  27.486100   0.003028  -0.010997  18.305800   0.002159  -0.005864  27.606500  -2.491280  -4.752580  30.257400  -0.000947  -0.002325  20.151400  -0.000196  -0.005463  30.086300  -3.443750  -5.919310  45.396600  -0.002010  -0.007964  30.234200  -0.004688  -0.004097   0.316520   8.143250   2.728580  -0.005476   2.013590  12.784600  -4.666650  -4.523430   5.041540  -0.000000   0.000000   0.000000   1.991410   8.938350  -8.742830   0.547271   1.651410  -7.345100  -9.612370  -0.888905   2.767900   0.000000   0.000000  -0.000000
  0.305541  89.932900   1.847000  -0.612545  -6.707340  -1.480300  -0.333834   5.473070  -0.037724  -0.668640  10.946300  -0.043538   0.895911  -0.582886   0.002416   1.472290  -1.181270   8.038440  -5.054190  -1.667840   4.440910 -70.390200  12.150800  -2.978980  -2.561450  -8.418570 -18.441200   7.326780   3.020810   4.697800  48.863500  42.036000 -78.683000 -26.057600   0.004403   0.003969  -8.028790  -0.004163   0.000742 -30.099400   4.015680  -6.890880 -24.826000   0.002757   0.009501 -17.380200  -0.004202   0.001525 -28.121900  -1.148000   2.146740 -32.999100  -0.000569   0.006755 -21.972800  -0.001428   0.001514 -24.470400  -1.584260   3.476730 -24.518200  -0.000027   0.000247 -16.329200  -0.000029   0.000147 -24.128400  -3.373020   7.481350 -36.525600   0.000844   0.006278 -24.325900   0.001226  -0.001489  10.737700   1.403730   7.684740  69.007800   1.381860   0.470826  -0.140371 -11.762300  17.732500  -9.068660  -9.805540  -5.081810 -37.350500  29.524100  61.746400  31.304200   0.004610  -0.014261  10.652100   0.003360  -0.005122  26.714400   1.591260   3.158150  21.893200   0.002260  -0.004989  15.325300   0.002511  -0.002420  27.109200  -0.996134  -1.945360  27.500800   0.003018  -0.011003  18.315600   0.002157  -0.005862  27.606300  -2.492640  -4.754760  30.269700  -0.000961  -0.002283  20.159600  -0.000196  -0.005441  30.097400  -3.444840  -5.919150  45.413600  -0.002015  -0.007967  30.245500  -0.004678  -0.004080   0.315860   8.239830   2.728780  -0.009094   1.945730  12.784900  -4.667710  -4.524330   5.030880   0.000000   0.000000  -0.000000   1.991890   8.963050  -8.743170   0.550465   1.651890  -7.358050  -9.612510  -0.889010   2.766420   0.000000   0.000000  -0.000000
  0.311493  89.932900   1.838520  -0.614614  -6.754670  -1.462100  -0.325761   5.507300  -0.041803  -0.652015  11.014800  -0.052342   0.874056  -0.552500   0.002431   1.436330  -1.119820   8.108260  -5.096210  -1.703070   4.422080 -70.358700  12.166300  -2.970500  -2.563320  -8.450670 -18.480900   7.320690   3.117100   4.664370  48.851600  42.026900 -78.697400 -26.049000   0.004420   0.003968  -8.024470  -0.004159   0.000732 -30.099200   4.016380  -6.891110 -24.825900   0.002744   0.009533 -17.380700  -0.004215   0.001510 -28.122300  -1.144080   2.139460 -32.992200  -0.000548   0.006783 -21.972800  -0.001394   0.001511 -24.471000  -1.578120   3.463130 -24.518000  -0.000067   0.000203 -16.329000   0.000000   0.000131 -24.136800  -3.369510   7.472630 -36.535400   0.000856   0.006339 -24.332500   0.001245  -0.001513  10.743600   1.347650   7.756360  68.978300   1.401050   0.488888  -0.161098 -11.793200  17.707200  -9.065960  -9.762260  -5.102440 -37.368300  29.594200  61.846400  31.311400   0.004583  -0.014304  10.655700   0.003353  -0.005052  26.728100   1.586560   3.146810  21.904300   0.002231  -0.004985  15.333000   0.002507  -0.002390  27.108800  -1.001800  -1.956200  27.515500   0.002992  -0.011021  18.325400   0.002152  -0.005856  27.606100  -2.494000  -4.756940  30.281900  -0.000998  -0.002195  20.167800  -0.000200  -0.005387  30.108600  -3.445940  -5.917980  45.430500  -0.002029  -0.007972  30.256700  -0.004655  -0.004038   0.317418   8.341820   2.729020  -0.012712   1.877870  12.785300  -4.669210  -4.525270   5.014650  -0.000000   0.000000   0.000000   1.991130   9.006930  -8.743970   0.557517   1.653950  -7.371000  -9.612700  -0.889297   2.761090  -0.000000   0.000000  -0.000000
  0.317316  89.933100   1.831260  -0.619157  -6.795070  -1.450920  -0.314556   5.537320  -0.045498  -0.629107  11.074800  -0.060711   0.852334  -0.520632   0.002454   1.400600  -1.055080   8.176580  -5.151940  -1.735200   4.405120 -70.347000  12.165300  -2.935830  -2.560410  -8.467120 -18.589600   7.300710   3.205550   4.682630  48.829500  41.996600 -78.693800 -26.042700   0.004433   0.003970  -8.021310  -0.004148   0.000736 -30.101900   4.011140  -6.880500 -24.827000   0.002725   0.009588 -17.380600  -0.004230   0.001488 -28.121800  -1.148010   2.147080 -32.988400  -0.000517   0.006826 -21.971400  -0.001342   0.001508 -24.472100  -1.584010   3.476260 -24.520000  -0.000082   0.000108 -16.330300   0.000000   0.000115 -24.147700  -3.375210   7.482380 -36.552600   0.000874   0.006432 -24.344000   0.001275  -0.001552  10.742600   1.303260   7.822550  68.950900   1.432860   0.516264  -0.182266 -11.813400  17.719200  -9.040380  -9.551520  -5.122500 -37.395900  29.695000  62.029900  31.299500   0.004549  -0.014387  10.649800   0.003353  -0.004940  26.692500   1.605110   3.188540  21.876100   0.002193  -0.004977  15.313200   0.002503  -0.002346  27.095200  -0.977124  -1.909090  27.460900   0.002954  -0.011049  18.289000   0.002143  -0.005847  27.596500  -2.468710  -4.710800  30.219400  -0.001052  -0.002073  20.126200  -0.000211  -0.005308  30.074700  -3.419490  -5.880240  45.376000  -0.002047  -0.007975  30.220400  -0.004620  -0.003972   0.321861   8.345410   2.729280  -0.011493   1.907130  12.782800  -4.669510  -4.524180   5.004380  -0.000000   0.000000  -0.000000   1.987670   9.044450  -8.745110   0.567510   1.657130  -7.366790  -9.612870  -0.889527   2.747180  -0.000000   0.000000   0.000000
